<svg id="10015.io" viewBox="0 0 480 480" xmlns="http://www.w3.org/2000/svg" xmlns:xlink="http://www.w3.org/1999/xlink" >
	<path fill="#eeeeee" d="M413.5,275Q456,310,431.5,335.5Q407,361,379.5,377.5Q352,394,320.5,392Q289,390,264.5,386.5Q240,383,205.5,418Q171,453,135.5,443Q100,433,89,395.5Q78,358,89,322Q100,286,69.5,263Q39,240,36.5,206.5Q34,173,77,163Q120,153,113.5,105Q107,57,143,54.5Q179,52,209.5,55.5Q240,59,274.5,43Q309,27,341,42.5Q373,58,390,88.5Q407,119,390.5,158Q374,197,372.5,218.5Q371,240,413.5,275Z" />
</svg>